<svg width="782" height="543" viewBox="0 0 782 543" fill="none" xmlns="http://www.w3.org/2000/svg">
<g clip-path="url(#clip0_33_13)">
<rect width="938" height="543" fill="#F3EBD8"/>
<g clip-path="url(#clip1_33_13)">
<path d="M453.521 609.293C488.68 609.353 517.217 589.255 517.259 564.404C517.301 539.552 488.833 519.357 453.674 519.297C418.515 519.237 389.978 539.335 389.936 564.186C389.893 589.038 418.361 609.233 453.521 609.293Z" fill="#8E382D"/>
<path d="M20.6864 529.496C26.346 510.757 22.5047 494.501 10.2206 479.168C10.5819 473.544 14.4546 471.363 26.4216 466.384C70.4177 448.335 118.605 447.48 166.792 446.937C216.034 446.396 263.503 454.601 310.614 465.931C348.233 475.057 401.683 482.023 431.892 504.886C465.965 530.568 428.281 559.565 395.914 564.822C353.344 571.624 305.87 566.543 262.607 567.094C213.717 567.636 165.178 568.178 116.289 568.095C90.9652 568.052 65.9935 567.696 40.6706 567.028C14.6443 566.359 9.71649 568.538 10.7994 552.291C15.384 545.111 18.5623 537.617 20.6864 529.496Z" fill="#C1B08E"/>
<path d="M31.8589 577.95L405.387 578.587C416.29 578.606 425.097 570.809 425.113 561.122C425.13 551.435 416.35 543.608 405.447 543.589L31.9186 542.952C21.0153 542.933 12.2089 550.731 12.1924 560.418C12.5276 570.105 21.3073 577.932 31.8589 577.95Z" fill="#8E382D"/>
<path d="M37.3819 226.727C38.8256 205.168 39.5653 183.92 43.4704 162.678C44.1824 157.679 45.2456 152.994 45.6058 147.994C45.9623 145.183 46.6706 142.372 47.0276 139.247C47.0281 138.935 47.0281 138.935 47.0287 138.622C47.0287 138.622 47.3804 138.623 47.3809 138.31L47.7358 136.436L50.5491 136.753C91.3845 115.887 158.235 102.251 233.855 102.38C332.337 102.548 416.007 126.127 446.903 158.678C446.896 162.741 447.241 166.803 446.884 169.928C446.86 183.677 446.836 198.051 449.274 211.805C448.569 212.741 451.021 218.682 450.316 219.619L458.951 518.681L437.137 523.019C386.527 500.746 294.061 478.715 206.142 472.003C131.587 466.251 62.9953 469.571 10.9235 479.482L10.9246 478.857C9.52888 472.292 12.7114 462.298 13.4261 455.737C18.4317 407.936 23.4368 360.446 28.7941 312.645C30.9407 291.4 33.0872 270.155 35.2338 248.909C36.3012 241.724 36.6657 234.225 37.3819 226.727Z" fill="#E5DECF"/>
<path d="M82.0383 233.99C82.7535 227.117 83.4692 219.931 84.1843 213.057C85.2539 204.622 85.2688 195.872 87.0423 187.126C87.7516 183.69 88.1097 179.94 88.4673 176.504C88.8228 174.317 89.1777 172.443 89.5331 170.256L89.5337 169.943C89.5337 169.943 89.5337 169.943 89.8854 169.944L89.8875 168.694L91.9979 168.698C122.975 153.439 173.289 143.212 229.916 143.309C303.778 143.435 366.707 160.729 390.231 184.518C390.226 187.643 390.221 190.455 390.218 192.642C389.792 236.077 392.532 279.517 394.216 322.955C395.906 363.269 397.596 403.27 398.934 443.583C398.929 447.02 398.923 450.145 398.214 453.581C398.213 453.893 398.213 454.206 397.861 454.518C397.508 454.83 397.157 454.829 396.805 454.828C391.88 455.133 382.393 449.804 377.472 448.233C369.738 445.72 361.653 442.894 353.919 440.381C337.749 435.041 321.227 429.701 304.702 426.235C273.411 419.307 241.412 414.878 209.057 412.635C153.14 408.478 101.433 410.889 62.3798 418.01L62.3809 417.385C61.3332 413.008 63.4552 406.137 64.1661 401.764C65.5948 388.954 67.0236 376.145 68.4528 363.023C73.4499 320.221 77.3929 276.792 82.0383 233.99Z" fill="#D1C19B"/>
<path d="M427.288 523.315C297.565 486.533 160.046 484.111 24.9764 488.88C18.2931 489.181 18.2777 498.243 24.9609 497.942C158.975 493.171 295.439 495.591 424.459 532.059C430.787 533.945 433.616 525.2 427.288 523.315Z" fill="#B2A07F"/>
<path d="M413.898 537.666C288.739 505.892 157.542 508.793 28.7947 518.573C22.4627 519.187 22.0955 528.248 28.7792 527.635C156.471 517.853 286.613 514.95 411.069 546.411C417.749 547.985 420.226 539.239 413.898 537.666Z" fill="#B2A07F"/>
<path d="M881.703 529.089C876.108 510.331 880.004 494.088 892.693 478.798C892.35 473.173 888.485 470.979 876.183 465.958C831.546 447.758 783.01 446.737 734.122 446.029C684.178 445.319 636.33 453.362 588.125 464.529C550.124 473.526 495.947 480.309 464.957 503.067C430.093 528.632 468.381 557.758 501.082 563.126C544.332 570.074 592.174 565.156 635.787 565.856C685.027 566.565 734.618 567.274 783.859 567.358C809.183 567.401 834.859 567.132 860.184 566.551C867.219 566.25 884.449 569.092 889.384 562.538C896.785 554.114 884.151 537.53 881.703 529.089Z" fill="#BAA88A"/>
<path d="M868.851 228.457C865.37 207.202 864 185.638 861.574 164.385C860.879 159.384 859.832 154.695 859.488 149.695C859.142 146.882 858.443 144.068 858.096 140.943C858.097 140.63 858.097 140.63 858.098 140.318C858.098 140.318 857.746 140.317 857.746 140.005L857.398 138.129L854.584 138.437C813.468 117.118 746.665 103.255 671.045 103.126C572.563 102.958 488.813 126.251 457.806 158.697C457.799 162.759 457.441 166.821 457.787 169.946C457.764 183.696 457.739 198.07 455.254 211.815C455.955 212.754 456.658 213.38 457.36 214.318L444.53 518.657L481.462 518.407C532.147 496.307 609.907 479.253 697.849 472.841C772.423 467.343 841.003 470.898 893.041 480.986L893.042 480.361L870.236 240.959C870.94 240.647 868.498 228.769 868.851 228.457Z" fill="#E2D8C0"/>
<path d="M823.822 233.38C823.13 226.504 822.439 219.316 821.747 212.44C820.706 204.001 820.721 195.251 818.978 186.499C818.28 183.06 817.935 179.31 817.589 175.872C817.241 173.684 816.892 171.809 816.544 169.621L816.545 169.308C816.545 169.308 816.545 169.308 816.193 169.307L816.195 168.058L814.085 168.054C783.159 152.689 732.881 142.292 676.254 142.195C602.392 142.069 539.405 159.148 515.799 182.857C515.794 185.982 515.789 188.794 515.785 190.982C516.063 234.417 513.175 277.848 511.342 321.28C509.515 361.588 507.688 401.583 506.213 441.891C506.207 445.328 506.201 448.453 506.899 451.891C506.898 452.204 506.898 452.516 507.249 452.829C507.6 453.142 507.952 453.143 508.304 453.144C513.227 453.465 522.733 448.169 527.66 446.614C535.402 444.128 543.496 441.329 551.238 438.843C567.427 433.558 583.966 428.274 600.503 424.865C631.818 418.043 663.832 413.723 696.194 411.591C752.125 407.624 803.824 410.212 842.853 417.466L842.854 416.841C843.916 412.468 841.818 405.59 841.122 401.214C839.737 388.399 838.352 375.585 836.967 362.458C832.115 319.952 827.969 276.51 823.822 233.38Z" fill="#D1C19B"/>
<path d="M542.453 228.213C616.36 201.778 696.912 196.915 773.908 215.171C784.104 217.688 788.349 203.633 778.153 201.116C698.344 182.231 614.275 186.775 537.904 214.143C528.753 217.877 532.95 231.634 542.453 228.213Z" fill="#B5A078"/>
<path d="M541.32 273.521C615.227 247.086 695.78 242.224 772.776 260.479C782.972 262.996 787.216 248.942 777.021 246.424C697.212 227.539 613.142 232.083 536.772 259.452C527.621 263.186 531.466 277.254 541.32 273.521Z" fill="#B5A078"/>
<path d="M544.405 321.024C589.805 304.852 637.301 296.809 686.19 296.892C696.742 296.91 696.766 282.536 686.215 282.518C635.918 282.432 586.664 290.473 540.208 307.268C530.706 310.376 534.903 324.445 544.405 321.024Z" fill="#B5A078"/>
<path d="M480.383 532.155C608.472 496.125 743.888 494.168 876.83 499.395C883.512 499.719 883.528 490.657 876.846 490.333C742.848 485.105 606.728 487.06 477.584 523.4C471.602 525.265 474.05 533.706 480.383 532.155Z" fill="#A59171"/>
<path d="M489.849 550.295C614.763 519.26 745.598 522.607 873.959 532.826C880.641 533.462 880.305 524.4 873.975 523.764C744.91 513.544 613.372 510.195 487.402 541.541C480.716 543.092 483.515 551.847 489.849 550.295Z" fill="#A59171"/>
<path d="M121.133 202.808C198.191 184.815 278.726 189.952 352.542 216.64C362.385 220.094 366.629 206.039 356.787 202.585C280.51 174.956 196.457 170.126 116.584 188.739C106.732 191.222 110.928 205.291 121.133 202.808Z" fill="#B5A078"/>
<path d="M113.67 247.793C190.728 229.801 271.263 234.938 345.079 261.625C354.922 265.079 359.166 251.024 349.324 247.57C273.047 219.941 188.994 215.423 109.121 233.724C98.9172 236.206 103.466 250.276 113.67 247.793Z" fill="#B5A078"/>
<path d="M109.72 295.284C157.221 284.428 205.411 282.01 253.939 287.405C264.489 288.673 264.162 273.986 253.964 273.031C204.03 267.009 154.432 269.737 105.523 281.215C95.3195 283.385 99.8679 297.455 109.72 295.284Z" fill="#B5A078"/>
<path d="M453.306 528.984L451.547 528.981C448.733 528.976 446.275 526.784 446.279 524.284L446.901 159.928C446.905 157.428 449.371 155.245 452.184 155.25L453.943 155.253C456.757 155.258 459.215 157.449 459.211 159.949L458.59 524.305C458.585 526.805 456.12 528.988 453.306 528.984Z" fill="#D1C19B"/>
<path d="M490.192 555.295C490.16 573.732 473.253 588.39 452.501 588.354C431.75 588.319 414.893 573.291 414.923 555.167C414.955 536.73 432.928 515.825 453.68 515.86C474.432 515.895 490.223 536.859 490.192 555.295Z" fill="#A58E6A"/>
<path d="M76.9015 152.423C122.302 135.938 169.798 127.895 218.688 127.666C229.239 127.684 229.264 113.309 218.712 113.291C168.416 113.518 119.161 121.559 72.7043 138.666C62.8503 142.087 67.0469 156.156 76.9015 152.423Z" fill="#F2E9DA"/>
<path d="M249.989 128.656C255.04 128.665 259.14 125.174 259.148 120.86C259.155 116.545 255.067 113.041 250.016 113.032C244.966 113.024 240.865 116.514 240.858 120.829C240.851 125.143 244.939 128.648 249.989 128.656Z" fill="#F2E9DA"/>
</g>
</g>
<defs>
<clipPath id="clip0_33_13">
<rect width="938" height="543" fill="white"/>
</clipPath>
<clipPath id="clip1_33_13">
<rect width="882.822" height="506.537" fill="white" transform="translate(10.8637 102) rotate(0.0976947)"/>
</clipPath>
</defs>
</svg>
